HIERARCHY
ROOT Hips
{
  OFFSET -9.17366 88.0764 220.268
  CHANNELS 6 Xposition Yposition Zposition Zrotation Xrotation Yrotation
  JOINT Spine
  {
    OFFSET 0 10.1816 0.1315
    CHANNELS 6 Xposition Yposition Zposition Zrotation Xrotation Yrotation
    JOINT Spine1
    {
      OFFSET 0 10.0835 -1.0008
      CHANNELS 6 Xposition Yposition Zposition Zrotation Xrotation Yrotation
      JOINT Spine2
      {
        OFFSET 0 9.1 -1.3734
        CHANNELS 6 Xposition Yposition Zposition Zrotation Xrotation Yrotation
        JOINT Neck
        {
          OFFSET 0 16.6717 -2.5162
          CHANNELS 6 Xposition Yposition Zposition Zrotation Xrotation Yrotation
          JOINT Head
          {
            OFFSET 0 9.6179 1.685
            CHANNELS 6 Xposition Yposition Zposition Zrotation Xrotation Yrotation
            JOINT HeadTop_End
            {
              OFFSET 0 17.8152 2.585
              CHANNELS 6 Xposition Yposition Zposition Zrotation Xrotation Yrotation
              End Site
              {
                OFFSET 0 0 0
              }
            }
            JOINT LeftEye
            {
              OFFSET 3.0676 6.4095 9.2836
              CHANNELS 6 Xposition Yposition Zposition Zrotation Xrotation Yrotation
              End Site
              {
                OFFSET 0 0 0
              }
            }
            JOINT RightEye
            {
              OFFSET -3.0676 6.4095 9.2835
              CHANNELS 6 Xposition Yposition Zposition Zrotation Xrotation Yrotation
              End Site
              {
                OFFSET 0 0 0
              }
            }
          }
        }
        JOINT LeftShoulder
        {
          OFFSET 4.5704 10.946 -2.628
          CHANNELS 6 Xposition Yposition Zposition Zrotation Xrotation Yrotation
          JOINT LeftArm
          {
            OFFSET 10.5924 -0.5246 -2.2321
            CHANNELS 6 Xposition Yposition Zposition Zrotation Xrotation Yrotation
            JOINT LeftForeArm
            {
              OFFSET 27.8415 -0.0001 0
              CHANNELS 6 Xposition Yposition Zposition Zrotation Xrotation Yrotation
              JOINT LeftHand
              {
                OFFSET 28.3288 0 0
                CHANNELS 6 Xposition Yposition Zposition Zrotation Xrotation Yrotation
                JOINT LeftHandThumb1
                {
                  OFFSET 2.4661 -1.575 2.6824
                  CHANNELS 6 Xposition Yposition Zposition Zrotation Xrotation Yrotation
                  JOINT LeftHandThumb2
                  {
                    OFFSET 3.2298 -1.8647 1.8647
                    CHANNELS 6 Xposition Yposition Zposition Zrotation Xrotation Yrotation
                    JOINT LeftHandThumb3
                    {
                      OFFSET 2.6526 -1.5315 1.5315
                      CHANNELS 6 Xposition Yposition Zposition Zrotation Xrotation Yrotation
                      End Site
                      {
                        OFFSET 1.9546 -1.1285 1.1285
                      }
                    }
                  }
                }
                JOINT LeftHandIndex1
                {
                  OFFSET 9.1093 -0.5171 2.2601
                  CHANNELS 6 Xposition Yposition Zposition Zrotation Xrotation Yrotation
                  JOINT LeftHandIndex2
                  {
                    OFFSET 3.6764 0 0
                    CHANNELS 6 Xposition Yposition Zposition Zrotation Xrotation Yrotation
                    JOINT LeftHandIndex3
                    {
                      OFFSET 2.8831 0 0
                      CHANNELS 6 Xposition Yposition Zposition Zrotation Xrotation Yrotation
                      End Site
                      {
                        OFFSET 2.3927 0 0
                      }
                    }
                  }
                }
                JOINT LeftHandMiddle1
                {
                  OFFSET 9.5334 0 0
                  CHANNELS 6 Xposition Yposition Zposition Zrotation Xrotation Yrotation
                  JOINT LeftHandMiddle2
                  {
                    OFFSET 3.6982 0 0
                    CHANNELS 6 Xposition Yposition Zposition Zrotation Xrotation Yrotation
                    JOINT LeftHandMiddle3
                    {
                      OFFSET 2.9509 0 0
                      CHANNELS 6 Xposition Yposition Zposition Zrotation Xrotation Yrotation
                      End Site
                      {
                        OFFSET 2.8339 0 0
                      }
                    }
                  }
                }
                JOINT LeftHandRing1
                {
                  OFFSET 9.1045 -0.0439 -1.8651
                  CHANNELS 6 Xposition Yposition Zposition Zrotation Xrotation Yrotation
                  JOINT LeftHandRing2
                  {
                    OFFSET 3.154 0 0
                    CHANNELS 6 Xposition Yposition Zposition Zrotation Xrotation Yrotation
                    JOINT LeftHandRing3
                    {
                      OFFSET 2.9377 0 0
                      CHANNELS 6 Xposition Yposition Zposition Zrotation Xrotation Yrotation
                      End Site
                      {
                        OFFSET 2.6475 0 0
                      }
                    }
                  }
                }
                JOINT LeftHandPinky1
                {
                  OFFSET 8.0778 -0.4887 -3.8061
                  CHANNELS 6 Xposition Yposition Zposition Zrotation Xrotation Yrotation
                  JOINT LeftHandPinky2
                  {
                    OFFSET 3.6 0 0
                    CHANNELS 6 Xposition Yposition Zposition Zrotation Xrotation Yrotation
                    JOINT LeftHandPinky3
                    {
                      OFFSET 2.1142 0 0
                      CHANNELS 6 Xposition Yposition Zposition Zrotation Xrotation Yrotation
                      End Site
                      {
                        OFFSET 1.9757 0 0
                      }
                    }
                  }
                }
              }
            }
          }
        }
        JOINT RightShoulder
        {
          OFFSET -4.57 10.9462 -2.628
          CHANNELS 6 Xposition Yposition Zposition Zrotation Xrotation Yrotation
          JOINT RightArm
          {
            OFFSET -10.5928 -0.5248 -2.2321
            CHANNELS 6 Xposition Yposition Zposition Zrotation Xrotation Yrotation
            JOINT RightForeArm
            {
              OFFSET -27.8415 0 0
              CHANNELS 6 Xposition Yposition Zposition Zrotation Xrotation Yrotation
              JOINT RightHand
              {
                OFFSET -28.3288 0 0.0001
                CHANNELS 6 Xposition Yposition Zposition Zrotation Xrotation Yrotation
                JOINT RightHandPinky1
                {
                  OFFSET -8.0767 -0.4885 -3.806
                  CHANNELS 6 Xposition Yposition Zposition Zrotation Xrotation Yrotation
                  JOINT RightHandPinky2
                  {
                    OFFSET -3.6 0 0.0001
                    CHANNELS 6 Xposition Yposition Zposition Zrotation Xrotation Yrotation
                    JOINT RightHandPinky3
                    {
                      OFFSET -2.1142 0 0
                      CHANNELS 6 Xposition Yposition Zposition Zrotation Xrotation Yrotation
                      End Site
                      {
                        OFFSET -1.9757 0 0
                      }
                    }
                  }
                }
                JOINT RightHandRing1
                {
                  OFFSET -9.1036 -0.0439 -1.8651
                  CHANNELS 6 Xposition Yposition Zposition Zrotation Xrotation Yrotation
                  JOINT RightHandRing2
                  {
                    OFFSET -3.154 0 0
                    CHANNELS 6 Xposition Yposition Zposition Zrotation Xrotation Yrotation
                    JOINT RightHandRing3
                    {
                      OFFSET -2.9377 0 0
                      CHANNELS 6 Xposition Yposition Zposition Zrotation Xrotation Yrotation
                      End Site
                      {
                        OFFSET -2.6475 0 0
                      }
                    }
                  }
                }
                JOINT RightHandMiddle1
                {
                  OFFSET -9.5325 0 0
                  CHANNELS 6 Xposition Yposition Zposition Zrotation Xrotation Yrotation
                  JOINT RightHandMiddle2
                  {
                    OFFSET -3.6982 0 0
                    CHANNELS 6 Xposition Yposition Zposition Zrotation Xrotation Yrotation
                    JOINT RightHandMiddle3
                    {
                      OFFSET -2.9509 0 0
                      CHANNELS 6 Xposition Yposition Zposition Zrotation Xrotation Yrotation
                      End Site
                      {
                        OFFSET -2.8339 0 0.0001
                      }
                    }
                  }
                }
                JOINT RightHandIndex1
                {
                  OFFSET -9.1083 -0.5168 2.2601
                  CHANNELS 6 Xposition Yposition Zposition Zrotation Xrotation Yrotation
                  JOINT RightHandIndex2
                  {
                    OFFSET -3.6764 0 0
                    CHANNELS 6 Xposition Yposition Zposition Zrotation Xrotation Yrotation
                    JOINT RightHandIndex3
                    {
                      OFFSET -2.8831 0 0
                      CHANNELS 6 Xposition Yposition Zposition Zrotation Xrotation Yrotation
                      End Site
                      {
                        OFFSET -2.3927 0 0
                      }
                    }
                  }
                }
                JOINT RightHandThumb1
                {
                  OFFSET -2.4648 -1.5727 2.6826
                  CHANNELS 6 Xposition Yposition Zposition Zrotation Xrotation Yrotation
                  JOINT RightHandThumb2
                  {
                    OFFSET -3.2298 -1.8647 1.8647
                    CHANNELS 6 Xposition Yposition Zposition Zrotation Xrotation Yrotation
                    JOINT RightHandThumb3
                    {
                      OFFSET -2.6526 -1.5314 1.5314
                      CHANNELS 6 Xposition Yposition Zposition Zrotation Xrotation Yrotation
                      End Site
                      {
                        OFFSET -1.9546 -1.1285 1.1285
                      }
                    }
                  }
                }
              }
            }
          }
        }
      }
    }
  }
  JOINT LeftUpLeg
  {
    OFFSET 8.2078 -6.7517 -1.5996
    CHANNELS 6 Xposition Yposition Zposition Zrotation Xrotation Yrotation
    JOINT LeftLeg
    {
      OFFSET 0 -44.3705 0.2846
      CHANNELS 6 Xposition Yposition Zposition Zrotation Xrotation Yrotation
      JOINT LeftFoot
      {
        OFFSET 0 -44.4279 -2.9822
        CHANNELS 6 Xposition Yposition Zposition Zrotation Xrotation Yrotation
        JOINT LeftToeBase
        {
          OFFSET 0 -8.7287 10.7106
          CHANNELS 6 Xposition Yposition Zposition Zrotation Xrotation Yrotation
          End Site
          {
            OFFSET 0 -0.0007 9.2781
          }
        }
      }
    }
  }
  JOINT RightUpLeg
  {
    OFFSET -8.2078 -6.7517 -1.5996
    CHANNELS 6 Xposition Yposition Zposition Zrotation Xrotation Yrotation
    JOINT RightLeg
    {
      OFFSET 0 -44.3705 0.2862
      CHANNELS 6 Xposition Yposition Zposition Zrotation Xrotation Yrotation
      JOINT RightFoot
      {
        OFFSET 0 -44.4277 -2.9838
        CHANNELS 6 Xposition Yposition Zposition Zrotation Xrotation Yrotation
        JOINT RightToeBase
        {
          OFFSET 0 -8.7287 10.7106
          CHANNELS 6 Xposition Yposition Zposition Zrotation Xrotation Yrotation
          End Site
          {
            OFFSET 0 -0.0007 9.2781
          }
        }
      }
    }
  }
}
MOTION
Frames:	4
Frame Time:	0.0333333
-0.0471669 85.9712 1.91449 -4.46223 22.1729 -16.1907 -3.55271e-015 10.1816 0.1315 1.88676 15.1605 11.6643 4.44089e-016 10.0835 -1.0008 0.717944 1.16345 3.02914 -4.44089e-016 9.1 -1.3734 0.697505 1.19755 2.9891 -1.77636e-015 16.6717 -2.5162 1.37297 -7.43658 -1.53832 0 9.6179 1.685 -4.19799 -24.6998 2.67556 0 17.8152 2.585 1.2424e-017 -1.59028e-015 2.48481e-017 3.0676 6.4095 9.2836 1.2424e-017 -1.59028e-015 2.48481e-017 -3.0676 6.4095 9.2835 1.2424e-017 -1.59028e-015 2.48481e-017 4.5704 10.946 -2.628 -12.3536 0.0636779 3.17606 10.5924 -0.5246 -2.2321 -63.1 4.03477 44.4918 27.8415 -0.0001 0 -0.000210066 -9.04189e-006 -65.6527 28.3288 0 0 20.5544 11.5854 -16.3266 2.4661 -1.575 2.6824 19.2404 -7.67817 -2.89919 3.2298 -1.8647 1.8647 -13.7083 8.81767 28.6745 2.6526 -1.5315 1.5315 15.2953 -14.2013 -24.377 9.1093 -0.5171 2.2601 -28.8108 1.40697 -10.8395 3.6764 0 0 -78.5312 -4.69225 5.73825 2.8831 1.42109e-014 -7.10543e-015 -30.4046 -0.804417 2.95968 9.5334 -7.10543e-015 0 -48.5781 -3.64734 -2.79433 3.6982 2.66454e-015 0 -65.7988 -3.45555 5.33935 2.9509 0 0 -33.4989 -0.971691 3.22788 9.1045 -0.0439 -1.8651 -51.9569 -4.02538 -1.28082 3.154 -8.88178e-015 0 -76.5165 -4.49121 5.69361 2.9377 0 7.10543e-015 -28.7136 -0.719217 2.80943 8.0778 -0.4887 -3.8061 -57.552 -4.65493 0.984348 3.6 3.55271e-015 0 -57.2791 -2.69014 4.92385 2.1142 0 7.10543e-015 -33.7246 -0.984443 3.24709 -4.57 10.9462 -2.628 18.5052 3.37138 9.87945 -10.5928 -0.5248 -2.2321 39.887 -7.77943 30.6619 -27.8415 0 1.77636e-015 1.586e-005 -6.02771e-006 101.392 -28.3288 0 0.0001 -13.6449 32.9382 17.0984 -8.0767 -0.4885 -3.806 82.0457 -6.23267 1.19801 -3.6 0 0.0001 80.9029 -3.91007 -4.58691 -2.1142 0 -3.55271e-015 71.1007 -3.14133 -4.39476 -9.1036 -0.0439 -1.8651 77.4724 -5.80359 3.84076 -3.154 0 -3.55271e-015 77.4234 -3.63462 -4.534 -2.9377 7.10543e-015 0 43.9609 -1.30122 -3.22308 -9.5325 -1.42109e-014 -3.55271e-015 63.4208 -4.55843 1.69095 -3.6982 0 3.55271e-015 71.5931 -3.17919 -4.40753 -2.9509 0 0 54.9217 -1.97565 -3.80255 -9.1083 -0.5168 2.2601 60.9986 -3.59305 3.14879 -3.6764 0 0 60.6202 -2.36657 -4.04715 -2.8831 0 0 34.765 -0.828788 -2.64709 -2.4648 -1.5727 2.6826 -0.958874 -10.7963 1.66951 -3.2298 -1.8647 1.8647 3.1291 17.621 -23.8476 -2.6526 -1.5314 1.5314 -4.33232 -16.3446 19.1875 8.2078 -6.7517 -1.5996 48.8553 -63.8526 43.6474 -1.77636e-015 -44.3705 0.2846 178.206 59.4509 179.494 -1.77636e-015 -44.4279 -2.9822 13.1501 -5.62489 0.55453 1.77636e-015 -8.7287 10.7106 -6.17354e-006 -6.00868 -2.21661e-006 -8.2078 -6.7517 -1.5996 5.79653 -28.9811 2.70748 0 -44.3705 0.2862 -7.04989 55.3647 12.8962 -1.77636e-015 -44.4277 -2.9838 3.9054 -37.8747 1.15453 1.77636e-015 -8.7287 10.7106 2.11833e-006 -10.981 5.2497e-006 
-1.24911 94.7454 12.0419 0.484823 12.6799 -30.0172 -8.88178e-016 10.1816 0.1315 3.61055 15.8332 15.2959 0 10.0835 -1.0008 1.8273 1.78418 7.11123 0 9.1 -1.3734 1.80653 1.50963 7.21393 0 16.6717 -2.5162 0.896445 -6.46966 -2.39584 0 9.6179 1.685 -6.38481 -22.5798 -0.205839 -3.55271e-015 17.8152 2.585 -3.52843e-015 -3.97569e-016 -0 3.0676 6.4095 9.2836 -3.52843e-015 -3.97569e-016 -0 -3.0676 6.4095 9.2835 -3.52843e-015 -3.97569e-016 -0 4.5704 10.946 -2.628 -10.1205 -0.0868432 3.50989 10.5924 -0.5246 -2.2321 -62.2719 6.00755 56.0878 27.8415 -0.0001 -1.42109e-014 -0.000199968 1.02534e-005 -75.7092 28.3288 0 -7.10543e-015 23.6405 2.98741 -13.8323 2.4661 -1.575 2.6824 18.995 -7.79022 -3.15797 3.2298 -1.8647 1.8647 -13.2381 8.71376 28.9236 2.6526 -1.5315 1.5315 15.3891 -14.5288 -24.8839 9.1093 -0.5171 2.2601 -25.9039 0.967652 -10.9739 3.6764 -1.42109e-014 0 -65.3535 -3.41407 5.32048 2.8831 7.10543e-015 -3.55271e-015 -19.2136 -0.325689 1.92402 9.5334 0 7.10543e-015 -47.7074 -3.55736 -2.75462 3.6982 0 0 -52.9861 -2.32996 4.67264 2.9509 -2.13163e-014 7.10543e-015 -24.5025 -0.526647 2.42499 9.1045 -0.0439 -1.8651 -50.9746 -3.93742 0.10987 3.154 3.55271e-015 0 -69.6917 -3.82397 5.49043 2.9377 1.42109e-014 0 -29.3498 -0.75075 2.86625 8.0778 -0.4887 -3.8061 -56.383 -4.65356 4.7441 3.6 7.10543e-015 7.10543e-015 -57.6035 -2.71811 4.94172 2.1142 1.42109e-014 0 -35.3137 -1.07646 3.38089 -4.57 10.9462 -2.628 10.7198 2.65146 11.461 -10.5928 -0.5248 -2.2321 52.3327 -13.8054 42.0024 -27.8415 -7.10543e-015 0 1.38809e-005 6.33646e-006 114.536 -28.3288 7.10543e-015 0.0001 14.3412 44.8189 -12.025 -8.0767 -0.4885 -3.806 63.1231 -6.44171 -5.15285 -3.6 0 0.0001 48.3469 -1.5565 -3.46845 -2.1142 0 7.10543e-015 61.7637 -2.44785 -4.09188 -9.1036 -0.0439 -1.8651 58.9058 -4.17204 -1.57228 -3.154 0 7.10543e-015 48.6143 -1.57395 -3.48391 -2.9377 0 0 33.7572 -0.782779 -2.57955 -9.5325 -1.42109e-014 0 45.4927 -2.95917 1.34212 -3.6982 0 -3.55271e-015 42.8327 -1.23835 -3.15658 -2.9509 0 3.55271e-015 45.6874 -1.39992 -3.32443 -9.1083 -0.5168 2.2601 36.6705 -1.89011 6.40147 -3.6764 -2.84217e-014 7.10543e-015 28.3701 -0.557551 -2.20562 -2.8831 0 -7.10543e-015 20.1662 -0.284536 -1.60004 -2.4648 -1.5727 2.6826 3.8548 -14.2393 7.16964 -3.2298 -1.8647 1.8647 2.91984 18.081 -27.7152 -2.6526 -1.5314 1.5314 -11.7897 -7.69761 -5.02927 8.2078 -6.7517 -1.5996 91.2864 -76.1454 85.8269 5.32907e-015 -44.3705 0.2846 173.059 51.1458 -168.369 -3.55271e-015 -44.4279 -2.9822 16.1789 -0.18325 -6.78668 0 -8.7287 10.7106 -1.03127e-005 -0.991019 -6.25074e-006 -8.2078 -6.7517 -1.5996 -4.3016 -1.79832 -2.00808 3.55271e-015 -44.3705 0.2862 -10.9078 21.7092 6.9917 0 -44.4277 -2.9838 10.37 -11.9154 12.5155 -3.55271e-015 -8.7287 10.7106 4.00085e-006 -24.4863 -5.08331e-006 
-3.03342 105.936 19.7698 1.06627 1.05098 -40.7516 0 10.1816 0.1315 4.32687 15.2007 15.9465 3.55271e-015 10.0835 -1.0008 3.93549 2.00813 9.7989 0 9.1 -1.3734 3.82862 1.08811 10.1053 0 16.6717 -2.5162 0.73997 -3.95605 -3.28569 0 9.6179 1.685 -5.90667 -18.8338 -0.733309 1.42109e-014 17.8152 2.585 2.38542e-015 1.59028e-015 1.59028e-015 3.0676 6.4095 9.2836 2.38542e-015 1.59028e-015 1.59028e-015 -3.0676 6.4095 9.2835 2.38542e-015 1.59028e-015 1.59028e-015 4.5704 10.946 -2.628 -7.5405 0.300634 1.39327 10.5924 -0.5246 -2.2321 -55.8345 16.1293 59.7497 27.8415 -0.0001 0 -0.000124802 2.03608e-005 -84.9504 28.3288 0 3.55271e-015 28.3338 -1.10516 -12.9533 2.4661 -1.575 2.6824 19.1022 -7.96886 -3.45106 3.2298 -1.8647 1.8647 -12.6677 8.52164 29.1002 2.6526 -1.5315 1.5315 15.1859 -15.4755 -26.6769 9.1093 -0.5171 2.2601 -21.7683 0.5011 -11.3574 3.6764 0 1.77636e-015 -50.1462 -2.10248 4.492 2.8831 0 -3.55271e-015 -5.8667 -0.0306171 0.59749 9.5334 -2.84217e-014 -3.55271e-015 -46.1639 -3.39735 -2.80089 3.6982 0 -1.77636e-015 -38.0386 -1.24277 3.60425 2.9509 -3.55271e-015 7.10543e-015 -13.6615 -0.165394 1.38072 9.1045 -0.0439 -1.8651 -49.4019 -3.785 1.59393 3.154 1.42109e-014 0 -61.665 -3.07648 5.15197 2.9377 0 0 -29.8654 -0.776769 2.91203 8.0778 -0.4887 -3.8061 -54.6061 -4.53393 8.92277 3.6 0 0 -57.6485 -2.72199 4.9442 2.1142 -7.10543e-015 0 -36.6084 -1.15414 3.48799 -4.57 10.9462 -2.628 2.81485 1.03852 10.5876 -10.5928 -0.5248 -2.2321 63.8325 -21.5019 46.0454 -27.8415 -3.55271e-015 0 2.77356e-005 8.78412e-006 125.147 -28.3288 0 0.0001 31.7691 42.5904 -24.4301 -8.0767 -0.4885 -3.806 48.1349 -6.5272 -10.272 -3.6 2.84217e-014 0.0001 28.8063 -0.573708 -2.23526 -2.1142 0 -1.77636e-015 56.162 -2.05861 -3.85749 -9.1036 -0.0439 -1.8651 44.1083 -2.86765 -5.39467 -3.154 0 -3.55271e-015 26.1969 -0.476823 -2.04908 -2.9377 0 3.55271e-015 27.6329 -0.529498 -2.15284 -9.5325 -1.42109e-014 3.55271e-015 31.2597 -1.79607 1.41878 -3.6982 5.68434e-014 0 20.0621 -0.281632 -1.59214 -2.9509 2.84217e-014 0 37.6156 -0.965235 -2.83563 -9.1083 -0.5168 2.2601 22.1608 -1.03479 9.51924 -3.6764 0 -7.10543e-015 9.00189 -0.0571565 -0.726119 -2.8831 0 -3.55271e-015 11.4032 -0.0916102 -0.917541 -2.4648 -1.5727 2.6826 7.04167 -15.9436 10.6306 -3.2298 -1.8647 1.8647 2.78977 18.3588 -30.1683 -2.6526 -1.5314 1.5314 -14.3102 -0.401384 -21.2472 8.2078 -6.7517 -1.5996 129.922 -76.7426 121.056 7.10543e-015 -44.3705 0.2846 168.412 49.8 -166.62 0 -44.4279 -2.9822 11.133 15.7381 -9.39238 0 -8.7287 10.7106 -6.28156e-006 9.9555 4.62483e-007 -8.2078 -6.7517 -1.5996 -11.7673 11.1879 -8.63365 3.55271e-015 -44.3705 0.2862 -10.0654 6.86292 2.30514 0 -44.4277 -2.9838 -4.43992 25.0233 24.8528 0 -8.7287 10.7106 8.64292e-006 -43.498 2.64615e-005 
-5.07247 116.145 25.5443 2.72295 -12.217 -48.626 0 10.1816 0.1315 -1.1775 13.5787 14.0601 7.10543e-015 10.0835 -1.0008 5.44773 2.2235 10.9239 0 9.1 -1.3734 5.29927 0.708775 11.3348 0 16.6717 -2.5162 1.07161 -0.46173 -3.39784 0 9.6179 1.685 -3.29374 -15.1711 3.65466 7.10543e-015 17.8152 2.585 9.93923e-015 3.18055e-015 -3.18055e-015 3.0676 6.4095 9.2836 9.93923e-015 3.18055e-015 -3.18055e-015 -3.0676 6.4095 9.2835 9.93923e-015 3.18055e-015 -3.18055e-015 4.5704 10.946 -2.628 -6.38602 0.970146 -1.49838 10.5924 -0.5246 -2.2321 -41.11 25.2803 50.1519 27.8415 -0.0001 0 -0.000169144 8.80317e-006 -83.2123 28.3288 0 0 30.2471 0.34978 -12.2914 2.4661 -1.575 2.6824 19.0322 -8.11401 -3.72723 3.2298 -1.8647 1.8647 -12.1458 8.3791 29.3115 2.6526 -1.5315 1.5315 15.1087 -16.122 -27.8261 9.1093 -0.5171 2.2601 -18.2552 0.0225237 -11.6444 3.6764 0 -7.10543e-015 -35.9488 -1.11426 3.43366 2.8831 -1.42109e-014 -7.10543e-015 6.40869 -0.0365255 -0.652458 9.5334 0 0 -44.9569 -3.27393 -2.80809 3.6982 1.42109e-014 -7.10543e-015 -24.1436 -0.511549 2.39159 2.9509 0 0 -3.73593 -0.0124241 0.380875 9.1045 -0.0439 -1.8651 -48.1247 -3.66052 3.02687 3.154 -1.42109e-014 -7.10543e-015 -54.2411 -2.43329 4.74885 2.9377 3.55271e-015 -7.10543e-015 -30.4413 -0.806311 2.9629 8.0778 -0.4887 -3.8061 -53.1206 -4.42938 12.8867 3.6 0 0 -57.8332 -2.73797 4.95428 2.1142 -3.55271e-015 0 -38.0502 -1.24349 3.60517 -4.57 10.9462 -2.628 -2.98537 -0.421853 8.7807 -10.5928 -0.5248 -2.2321 70.0711 -29.6512 44.7258 -27.8415 7.10543e-015 1.42109e-014 1.52588e-005 4.97435e-014 126.641 -28.3288 3.55271e-015 0.0001 14.0618 33.5124 -10.1226 -8.0767 -0.4885 -3.806 40.5328 -6.41288 -14.4738 -3.6 -2.84217e-014 0.0001 26.9932 -0.504991 -2.10536 -2.1142 2.84217e-014 7.10543e-015 55.6434 -2.02379 -3.8339 -9.1036 -0.0439 -1.8651 35.3194 -2.1346 -6.76813 -3.154 2.84217e-014 3.55271e-015 14.8739 -0.15551 -1.19128 -2.9377 0 5.32907e-015 27.0676 -0.508452 -2.11215 -9.5325 3.55271e-015 0 22.4537 -1.15799 1.7678 -3.6982 0 0 6.98215 -0.0344174 -0.564121 -2.9509 2.84217e-014 0 29.525 -0.602863 -2.28955 -9.1083 -0.5168 2.2601 20.0506 -0.846023 12.0109 -3.6764 0 -7.10543e-015 5.98767 -0.0253209 -0.484098 -2.8831 2.84217e-014 0 9.21621 -0.0599129 -0.743268 -2.4648 -1.5727 2.6826 7.05704 -16.3664 10.9432 -3.2298 -1.8647 1.8647 2.25437 18.0893 -28.6129 -2.6526 -1.5314 1.5314 -14.217 -1.30024 -19.1768 8.2078 -6.7517 -1.5996 124.803 -74.9153 113.722 1.42109e-014 -44.3705 0.2846 172.93 51.2856 -174.053 0 -44.4279 -2.9822 1.93586 28.8686 -8.76069 -1.42109e-014 -8.7287 10.7106 7.49434e-007 22.4545 -6.33848e-006 -8.2078 -6.7517 -1.5996 -21.4225 15.5131 -12.4021 5.32907e-015 -44.3705 0.2862 -9.58997 7.0308 5.51196 3.55271e-015 -44.4277 -2.9838 -15.1749 39.0515 29.8484 0 -8.7287 10.7106 -6.8851e-006 -24.7272 1.09405e-005 
